<svg width="355" height="96" viewBox="0 0 355 96" fill="none" xmlns="http://www.w3.org/2000/svg">
<rect width="355" height="96" rx="48" fill="#F66D5F"/>
<path d="M45.6311 61.384C43.9458 61.384 42.3778 61.0747 40.9271 60.456C39.4978 59.8373 38.2498 58.984 37.1831 57.896C36.1378 56.7867 35.3165 55.4853 34.7191 53.992C34.1218 52.4987 33.8231 50.856 33.8231 49.064C33.8231 47.2933 34.1111 45.6613 34.6871 44.168C35.2845 42.6533 36.1165 41.352 37.1831 40.264C38.2498 39.1547 39.4978 38.3013 40.9271 37.704C42.3565 37.0853 43.9245 36.776 45.6311 36.776C47.3165 36.776 48.8205 37.064 50.1431 37.64C51.4871 38.216 52.6178 38.9733 53.5351 39.912C54.4525 40.8293 55.1138 41.832 55.5191 42.92L52.1271 44.52C51.6151 43.24 50.7938 42.2053 49.6631 41.416C48.5538 40.6053 47.2098 40.2 45.6311 40.2C44.0525 40.2 42.6551 40.5733 41.4391 41.32C40.2231 42.0667 39.2738 43.1013 38.5911 44.424C37.9298 45.7467 37.5991 47.2933 37.5991 49.064C37.5991 50.8347 37.9298 52.392 38.5911 53.736C39.2738 55.0587 40.2231 56.0933 41.4391 56.84C42.6551 57.5653 44.0525 57.928 45.6311 57.928C47.2098 57.928 48.5538 57.5333 49.6631 56.744C50.7938 55.9547 51.6151 54.92 52.1271 53.64L55.5191 55.24C55.1138 56.3067 54.4525 57.3093 53.5351 58.248C52.6178 59.1867 51.4871 59.944 50.1431 60.52C48.8205 61.096 47.3165 61.384 45.6311 61.384ZM63.4416 61.384C62.2683 61.384 61.2336 61.1813 60.3376 60.776C59.463 60.3493 58.7803 59.7733 58.2896 59.048C57.799 58.3013 57.5536 57.4267 57.5536 56.424C57.5536 55.4853 57.7563 54.6427 58.1616 53.896C58.5883 53.1493 59.239 52.52 60.1136 52.008C60.9883 51.496 62.087 51.1333 63.4096 50.92L69.4256 49.928L69.4256 52.776L64.1136 53.704C63.1536 53.8747 62.4496 54.184 62.0016 54.632C61.5536 55.0587 61.3296 55.6133 61.3296 56.296C61.3296 56.9573 61.575 57.5013 62.0656 57.928C62.5776 58.3333 63.2283 58.536 64.0176 58.536C64.999 58.536 65.8523 58.3227 66.5776 57.896C67.3243 57.4693 67.9003 56.904 68.3056 56.2C68.711 55.4747 68.9136 54.6747 68.9136 53.8L68.9136 49.352C68.9136 48.4987 68.5936 47.8053 67.9536 47.272C67.335 46.7173 66.503 46.44 65.4576 46.44C64.4976 46.44 63.655 46.696 62.9296 47.208C62.2256 47.6987 61.703 48.3387 61.3616 49.128L58.3536 47.624C58.6736 46.7707 59.1963 46.024 59.9216 45.384C60.647 44.7227 61.4896 44.2107 62.4496 43.848C63.431 43.4853 64.4656 43.304 65.5536 43.304C66.919 43.304 68.1243 43.56 69.1696 44.072C70.2363 44.584 71.0576 45.2987 71.6336 46.216C72.231 47.112 72.5296 48.1573 72.5296 49.352L72.5296 61L69.0736 61V57.864L69.8096 57.96C69.4043 58.664 68.8816 59.272 68.2416 59.784C67.623 60.296 66.9083 60.6907 66.0976 60.968C65.3083 61.2453 64.423 61.384 63.4416 61.384ZM76.2776 61L76.2776 43.688L79.7336 43.688L79.7336 47.176L79.4136 46.664C79.7976 45.5333 80.4163 44.7227 81.2696 44.232C82.123 43.72 83.147 43.464 84.3416 43.464L85.3976 43.464V46.76L83.8936 46.76C82.699 46.76 81.7283 47.1333 80.9816 47.88C80.2563 48.6053 79.8936 49.6507 79.8936 51.016V61L76.2776 61ZM95.3914 61.384C93.7274 61.384 92.234 60.9893 90.9114 60.2C89.61 59.3893 88.5754 58.3013 87.8074 56.936C87.0607 55.5707 86.6874 54.0347 86.6874 52.328C86.6874 50.6213 87.0714 49.0853 87.8394 47.72C88.6074 46.3547 89.642 45.2773 90.9434 44.488C92.2447 43.6987 93.7167 43.304 95.3594 43.304C96.746 43.304 97.9727 43.5813 99.0394 44.136C100.106 44.6907 100.949 45.4587 101.567 46.44L101.023 47.272L101.023 36.776L104.607 36.776L104.607 61L101.183 61V57.48L101.599 58.152C101.002 59.1973 100.149 59.9973 99.0394 60.552C97.93 61.1067 96.714 61.384 95.3914 61.384ZM95.7434 58.024C96.746 58.024 97.642 57.7787 98.4314 57.288C99.242 56.7973 99.8714 56.1253 100.319 55.272C100.789 54.3973 101.023 53.416 101.023 52.328C101.023 51.24 100.789 50.2693 100.319 49.416C99.8714 48.5627 99.242 47.8907 98.4314 47.4C97.642 46.9093 96.746 46.664 95.7434 46.664C94.7407 46.664 93.834 46.9093 93.0234 47.4C92.2127 47.8907 91.5834 48.5627 91.1354 49.416C90.6874 50.2693 90.4634 51.24 90.4634 52.328C90.4634 53.416 90.6874 54.3973 91.1354 55.272C91.5834 56.1253 92.202 56.7973 92.9914 57.288C93.802 57.7787 94.7194 58.024 95.7434 58.024ZM113.463 61L113.463 43.688H116.919L116.919 47.176L116.599 46.664C116.983 45.5333 117.601 44.7227 118.455 44.232C119.308 43.72 120.332 43.464 121.527 43.464H122.583L122.583 46.76H121.079C119.884 46.76 118.913 47.1333 118.167 47.88C117.441 48.6053 117.079 49.6507 117.079 51.016L117.079 61L113.463 61ZM132.704 61.384C130.976 61.384 129.44 60.9893 128.096 60.2C126.774 59.3893 125.739 58.3013 124.992 56.936C124.246 55.5493 123.872 54.0027 123.872 52.296C123.872 50.5467 124.246 49 124.992 47.656C125.76 46.312 126.784 45.256 128.064 44.488C129.344 43.6987 130.795 43.304 132.416 43.304C133.718 43.304 134.88 43.528 135.904 43.976C136.928 44.424 137.792 45.0427 138.496 45.832C139.2 46.6 139.734 47.4853 140.096 48.488C140.48 49.4907 140.672 50.5573 140.672 51.688C140.672 51.9653 140.662 52.2533 140.64 52.552C140.619 52.8507 140.576 53.128 140.512 53.384L126.72 53.384L126.72 50.504L138.464 50.504L136.736 51.816C136.95 50.7707 136.875 49.8427 136.512 49.032C136.171 48.2 135.638 47.5493 134.912 47.08C134.208 46.5893 133.376 46.344 132.416 46.344C131.456 46.344 130.603 46.5893 129.856 47.08C129.11 47.5493 128.534 48.232 128.128 49.128C127.723 50.0027 127.563 51.0693 127.648 52.328C127.542 53.5013 127.702 54.5253 128.128 55.4C128.576 56.2747 129.195 56.9573 129.984 57.448C130.795 57.9387 131.712 58.184 132.736 58.184C133.782 58.184 134.667 57.9493 135.392 57.48C136.139 57.0107 136.726 56.4027 137.152 55.656L140.096 57.096C139.755 57.9067 139.222 58.6427 138.496 59.304C137.792 59.944 136.939 60.456 135.936 60.84C134.955 61.2027 133.878 61.384 132.704 61.384ZM148.749 61.384C147.576 61.384 146.541 61.1813 145.645 60.776C144.77 60.3493 144.088 59.7733 143.597 59.048C143.106 58.3013 142.861 57.4267 142.861 56.424C142.861 55.4853 143.064 54.6427 143.469 53.896C143.896 53.1493 144.546 52.52 145.421 52.008C146.296 51.496 147.394 51.1333 148.717 50.92L154.733 49.928V52.776L149.421 53.704C148.461 53.8747 147.757 54.184 147.309 54.632C146.861 55.0587 146.637 55.6133 146.637 56.296C146.637 56.9573 146.882 57.5013 147.373 57.928C147.885 58.3333 148.536 58.536 149.325 58.536C150.306 58.536 151.16 58.3227 151.885 57.896C152.632 57.4693 153.208 56.904 153.613 56.2C154.018 55.4747 154.221 54.6747 154.221 53.8V49.352C154.221 48.4987 153.901 47.8053 153.261 47.272C152.642 46.7173 151.81 46.44 150.765 46.44C149.805 46.44 148.962 46.696 148.237 47.208C147.533 47.6987 147.01 48.3387 146.669 49.128L143.661 47.624C143.981 46.7707 144.504 46.024 145.229 45.384C145.954 44.7227 146.797 44.2107 147.757 43.848C148.738 43.4853 149.773 43.304 150.861 43.304C152.226 43.304 153.432 43.56 154.477 44.072C155.544 44.584 156.365 45.2987 156.941 46.216C157.538 47.112 157.837 48.1573 157.837 49.352V61H154.381V57.864L155.117 57.96C154.712 58.664 154.189 59.272 153.549 59.784C152.93 60.296 152.216 60.6907 151.405 60.968C150.616 61.2453 149.73 61.384 148.749 61.384ZM169.585 61.384C167.921 61.384 166.428 60.9893 165.105 60.2C163.804 59.3893 162.769 58.3013 162.001 56.936C161.254 55.5707 160.881 54.0347 160.881 52.328C160.881 50.6213 161.265 49.0853 162.033 47.72C162.801 46.3547 163.836 45.2773 165.137 44.488C166.438 43.6987 167.91 43.304 169.553 43.304C170.94 43.304 172.166 43.5813 173.233 44.136C174.3 44.6907 175.142 45.4587 175.761 46.44L175.217 47.272V36.776L178.801 36.776L178.801 61H175.377V57.48L175.793 58.152C175.196 59.1973 174.342 59.9973 173.233 60.552C172.124 61.1067 170.908 61.384 169.585 61.384ZM169.937 58.024C170.94 58.024 171.836 57.7787 172.625 57.288C173.436 56.7973 174.065 56.1253 174.513 55.272C174.982 54.3973 175.217 53.416 175.217 52.328C175.217 51.24 174.982 50.2693 174.513 49.416C174.065 48.5627 173.436 47.8907 172.625 47.4C171.836 46.9093 170.94 46.664 169.937 46.664C168.934 46.664 168.028 46.9093 167.217 47.4C166.406 47.8907 165.777 48.5627 165.329 49.416C164.881 50.2693 164.657 51.24 164.657 52.328C164.657 53.416 164.881 54.3973 165.329 55.272C165.777 56.1253 166.396 56.7973 167.185 57.288C167.996 57.7787 168.913 58.024 169.937 58.024ZM195.784 61.384C194.056 61.384 192.52 60.9893 191.176 60.2C189.854 59.3893 188.819 58.3013 188.072 56.936C187.326 55.5493 186.952 54.0027 186.952 52.296C186.952 50.5467 187.326 49 188.072 47.656C188.84 46.312 189.864 45.256 191.144 44.488C192.424 43.6987 193.875 43.304 195.496 43.304C196.798 43.304 197.96 43.528 198.984 43.976C200.008 44.424 200.872 45.0427 201.576 45.832C202.28 46.6 202.814 47.4853 203.176 48.488C203.56 49.4907 203.752 50.5573 203.752 51.688C203.752 51.9653 203.742 52.2533 203.72 52.552C203.699 52.8507 203.656 53.128 203.592 53.384L189.8 53.384V50.504L201.544 50.504L199.816 51.816C200.03 50.7707 199.955 49.8427 199.592 49.032C199.251 48.2 198.718 47.5493 197.992 47.08C197.288 46.5893 196.456 46.344 195.496 46.344C194.536 46.344 193.683 46.5893 192.936 47.08C192.19 47.5493 191.614 48.232 191.208 49.128C190.803 50.0027 190.643 51.0693 190.728 52.328C190.622 53.5013 190.782 54.5253 191.208 55.4C191.656 56.2747 192.275 56.9573 193.064 57.448C193.875 57.9387 194.792 58.184 195.816 58.184C196.862 58.184 197.747 57.9493 198.472 57.48C199.219 57.0107 199.806 56.4027 200.232 55.656L203.176 57.096C202.835 57.9067 202.302 58.6427 201.576 59.304C200.872 59.944 200.019 60.456 199.016 60.84C198.035 61.2027 196.958 61.384 195.784 61.384ZM206.801 61L206.801 43.688L210.257 43.688V47.176L209.937 46.664C210.321 45.5333 210.94 44.7227 211.793 44.232C212.647 43.72 213.671 43.464 214.865 43.464H215.921V46.76H214.417C213.223 46.76 212.252 47.1333 211.505 47.88C210.78 48.6053 210.417 49.6507 210.417 51.016V61L206.801 61ZM217.915 61L217.915 43.688L221.371 43.688V47.176L221.051 46.664C221.435 45.5333 222.054 44.7227 222.907 44.232C223.76 43.72 224.784 43.464 225.979 43.464H227.035V46.76L225.531 46.76C224.336 46.76 223.366 47.1333 222.619 47.88C221.894 48.6053 221.531 49.6507 221.531 51.016V61L217.915 61ZM237.381 61.384C235.717 61.384 234.192 60.9893 232.805 60.2C231.44 59.4107 230.352 58.3333 229.541 56.968C228.73 55.6027 228.325 54.056 228.325 52.328C228.325 50.5787 228.73 49.032 229.541 47.688C230.352 46.3227 231.44 45.256 232.805 44.488C234.17 43.6987 235.696 43.304 237.381 43.304C239.088 43.304 240.613 43.6987 241.957 44.488C243.322 45.256 244.4 46.3227 245.189 47.688C246 49.032 246.405 50.5787 246.405 52.328C246.405 54.0773 246 55.6347 245.189 57C244.378 58.3653 243.29 59.4427 241.925 60.232C240.56 61 239.045 61.384 237.381 61.384ZM237.381 58.024C238.405 58.024 239.312 57.7787 240.101 57.288C240.89 56.7973 241.509 56.1253 241.957 55.272C242.426 54.3973 242.661 53.416 242.661 52.328C242.661 51.24 242.426 50.2693 241.957 49.416C241.509 48.5627 240.89 47.8907 240.101 47.4C239.312 46.9093 238.405 46.664 237.381 46.664C236.378 46.664 235.472 46.9093 234.661 47.4C233.872 47.8907 233.242 48.5627 232.773 49.416C232.325 50.2693 232.101 51.24 232.101 52.328C232.101 53.416 232.325 54.3973 232.773 55.272C233.242 56.1253 233.872 56.7973 234.661 57.288C235.472 57.7787 236.378 58.024 237.381 58.024ZM249.455 61L249.455 43.688L252.911 43.688V47.176L252.591 46.664C252.975 45.5333 253.594 44.7227 254.447 44.232C255.3 43.72 256.324 43.464 257.519 43.464H258.575V46.76H257.071C255.876 46.76 254.906 47.1333 254.159 47.88C253.434 48.6053 253.071 49.6507 253.071 51.016V61L249.455 61Z" fill="white"/>
<path d="M299 68C310 68 319 59 319 48C319 37 310 28 299 28C288 28 279 37 279 48C279 59 288 68 299 68Z" stroke="white" stroke-width="2" stroke-linecap="round" stroke-linejoin="round"/>
<path d="M293.34 53.66L304.66 42.34" stroke="white" stroke-width="2" stroke-linecap="round" stroke-linejoin="round"/>
<path d="M304.66 53.66L293.34 42.34" stroke="white" stroke-width="2" stroke-linecap="round" stroke-linejoin="round"/>
</svg>
