<svg width="424" height="96" viewBox="0 0 424 96" fill="none" xmlns="http://www.w3.org/2000/svg">
<rect width="424" height="96" rx="48" fill="#F66D5F"/>
<path d="M45.5855 61.384C47.2495 61.384 48.7535 61.096 50.0975 60.52C51.4415 59.944 52.5722 59.1867 53.4895 58.248C54.4068 57.3093 55.0682 56.3067 55.4735 55.24L52.0815 53.64C51.5695 54.92 50.7482 55.9547 49.6175 56.744C48.5082 57.5333 47.1642 57.928 45.5855 57.928C44.0068 57.928 42.6095 57.5653 41.3935 56.84C40.1988 56.0933 39.2602 55.0587 38.5775 53.736C37.8948 52.392 37.5535 50.8347 37.5535 49.064C37.5535 47.2933 37.8948 45.7467 38.5775 44.424C39.2602 43.1013 40.1988 42.0667 41.3935 41.32C42.6095 40.5733 44.0068 40.2 45.5855 40.2C47.1642 40.2 48.5082 40.6053 49.6175 41.416C50.7482 42.2053 51.5695 43.24 52.0815 44.52L55.4735 42.92C55.0682 41.832 54.4068 40.8293 53.4895 39.912C52.5722 38.9733 51.4415 38.216 50.0975 37.64C48.7535 37.064 47.2495 36.776 45.5855 36.776C43.8788 36.776 42.3002 37.0853 40.8495 37.704C39.4202 38.3013 38.1722 39.1547 37.1055 40.264C36.0602 41.352 35.2388 42.6533 34.6415 44.168C34.0655 45.6613 33.7775 47.2933 33.7775 49.064C33.7775 50.8347 34.0655 52.4773 34.6415 53.992C35.2388 55.4853 36.0708 56.7867 37.1375 57.896C38.2042 59.0053 39.4522 59.8693 40.8815 60.488C42.3322 61.0853 43.9002 61.384 45.5855 61.384ZM63.396 61.384C64.5907 61.384 65.668 61.1813 66.628 60.776C67.588 60.3493 68.388 59.752 69.028 58.984V61L72.484 61L72.484 49.352C72.484 48.1573 72.1853 47.112 71.588 46.216C70.9907 45.2987 70.1693 44.584 69.124 44.072C68.0787 43.56 66.8733 43.304 65.508 43.304C64.42 43.304 63.3853 43.496 62.404 43.88C61.444 44.2427 60.6013 44.744 59.876 45.384C59.172 46.024 58.6493 46.7707 58.308 47.624L61.316 49.128C61.6573 48.3173 62.18 47.6667 62.884 47.176C63.6093 46.6853 64.452 46.44 65.412 46.44C66.4573 46.44 67.2893 46.7173 67.908 47.272C68.548 47.8053 68.868 48.4987 68.868 49.352V50.024L63.364 50.92C61.3587 51.2613 59.876 51.9227 58.916 52.904C57.9773 53.864 57.508 55.0373 57.508 56.424C57.508 57.9173 58.052 59.1227 59.14 60.04C60.228 60.936 61.6467 61.384 63.396 61.384ZM61.284 56.296C61.284 55.6133 61.508 55.048 61.956 54.6C62.404 54.152 63.108 53.8533 64.068 53.704L68.868 52.872V53.8C68.868 54.6747 68.6547 55.4747 68.228 56.2C67.8227 56.9253 67.2573 57.5013 66.532 57.928C65.8067 58.3333 64.9533 58.536 63.972 58.536C63.1827 58.536 62.532 58.3333 62.02 57.928C61.5293 57.5013 61.284 56.9573 61.284 56.296ZM76.232 61L79.848 61V51.016C79.848 49.6507 80.2107 48.6053 80.936 47.88C81.6827 47.1333 82.6533 46.76 83.848 46.76L85.352 46.76V43.464L84.296 43.464C83.2507 43.464 82.3333 43.656 81.544 44.04C80.7547 44.424 80.136 45.0427 79.688 45.896V43.688L76.232 43.688L76.232 61ZM95.3458 61.384C96.5404 61.384 97.6391 61.16 98.6418 60.712C99.6658 60.264 100.498 59.6133 101.138 58.76V61L104.562 61L104.562 36.776L100.978 36.776L100.978 45.704C100.338 44.9573 99.5271 44.3707 98.5458 43.944C97.5858 43.5173 96.5084 43.304 95.3138 43.304C93.6711 43.304 92.1884 43.6987 90.8658 44.488C89.5644 45.2773 88.5298 46.3547 87.7618 47.72C87.0151 49.0853 86.6418 50.6213 86.6418 52.328C86.6418 54.0347 87.0151 55.5707 87.7618 56.936C88.5298 58.3013 89.5644 59.3893 90.8658 60.2C92.1884 60.9893 93.6818 61.384 95.3458 61.384ZM95.6978 58.024C94.6738 58.024 93.7564 57.7787 92.9458 57.288C92.1564 56.7973 91.5378 56.1253 91.0898 55.272C90.6418 54.3973 90.4178 53.416 90.4178 52.328C90.4178 51.24 90.6418 50.2693 91.0898 49.416C91.5591 48.5627 92.1884 47.8907 92.9778 47.4C93.7884 46.9093 94.6951 46.664 95.6978 46.664C96.7004 46.664 97.5964 46.9093 98.3858 47.4C99.1964 47.8907 99.8258 48.5627 100.274 49.416C100.743 50.2693 100.978 51.24 100.978 52.328C100.978 53.416 100.743 54.3973 100.274 55.272C99.8258 56.1253 99.1964 56.7973 98.3858 57.288C97.5964 57.7787 96.7004 58.024 95.6978 58.024ZM113.417 61L117.033 61L117.033 50.792C117.033 49.512 117.396 48.5093 118.121 47.784C118.846 47.0373 119.764 46.664 120.873 46.664C122.004 46.664 122.921 47.0373 123.625 47.784C124.35 48.5093 124.713 49.512 124.713 50.792L124.713 61L128.297 61V49.8C128.297 48.52 128.009 47.4 127.433 46.44C126.878 45.4587 126.11 44.6907 125.129 44.136C124.148 43.5813 123.028 43.304 121.769 43.304C120.702 43.304 119.742 43.5173 118.889 43.944C118.036 44.3707 117.364 44.9893 116.873 45.8L116.873 43.688H113.417L113.417 61ZM140.039 61.384C141.703 61.384 143.218 61 144.583 60.232C145.948 59.4427 147.036 58.3653 147.847 57C148.658 55.6347 149.063 54.0773 149.063 52.328C149.063 50.5787 148.658 49.032 147.847 47.688C147.058 46.3227 145.98 45.256 144.615 44.488C143.25 43.6987 141.724 43.304 140.039 43.304C138.354 43.304 136.818 43.6987 135.431 44.488C134.066 45.256 132.978 46.3227 132.167 47.688C131.378 49.032 130.983 50.5787 130.983 52.328C130.983 54.056 131.388 55.6027 132.199 56.968C133.01 58.3333 134.098 59.4107 135.463 60.2C136.85 60.9893 138.375 61.384 140.039 61.384ZM140.039 58.024C139.036 58.024 138.13 57.7787 137.319 57.288C136.53 56.7973 135.9 56.1253 135.431 55.272C134.983 54.3973 134.759 53.416 134.759 52.328C134.759 51.24 134.983 50.2693 135.431 49.416C135.9 48.5627 136.53 47.8907 137.319 47.4C138.13 46.9093 139.036 46.664 140.039 46.664C141.042 46.664 141.938 46.9093 142.727 47.4C143.538 47.8907 144.167 48.5627 144.615 49.416C145.084 50.2693 145.319 51.24 145.319 52.328C145.319 53.416 145.084 54.3973 144.615 55.272C144.167 56.1253 143.538 56.7973 142.727 57.288C141.938 57.7787 141.042 58.024 140.039 58.024ZM159.289 61.192C159.587 61.192 159.918 61.1707 160.281 61.128C160.643 61.0853 160.963 61.0427 161.241 61V57.896C160.835 57.96 160.441 57.992 160.057 57.992C159.011 57.992 158.265 57.7467 157.817 57.256C157.39 56.744 157.177 56.0507 157.177 55.176V46.952L161.113 46.952V43.688L157.177 43.688V39.72L153.561 39.72V41.064C153.561 41.8747 153.337 42.5147 152.889 42.984C152.441 43.4533 151.811 43.688 151.001 43.688H150.521L150.521 46.952L153.561 46.952V55.336C153.561 57.192 154.062 58.632 155.065 59.656C156.067 60.68 157.475 61.192 159.289 61.192ZM175.803 61.384C177.083 61.384 178.203 61.1707 179.163 60.744C180.145 60.296 180.902 59.688 181.435 58.92C181.969 58.1307 182.235 57.224 182.235 56.2C182.235 55.0053 181.851 53.9813 181.083 53.128C180.315 52.2533 179.217 51.6133 177.787 51.208L174.971 50.376C174.438 50.2053 173.937 49.9707 173.467 49.672C172.998 49.3733 172.763 48.9253 172.763 48.328C172.763 47.7093 172.998 47.2187 173.467 46.856C173.937 46.4933 174.566 46.312 175.355 46.312C176.273 46.312 177.094 46.5573 177.819 47.048C178.566 47.5387 179.11 48.2 179.451 49.032L182.235 47.72C181.723 46.3333 180.849 45.256 179.611 44.488C178.374 43.6987 176.966 43.304 175.387 43.304C174.214 43.304 173.158 43.528 172.219 43.976C171.281 44.4027 170.545 45 170.011 45.768C169.478 46.536 169.211 47.4427 169.211 48.488C169.211 49.6613 169.574 50.6747 170.299 51.528C171.046 52.3813 172.166 53.0213 173.659 53.448L176.379 54.216C176.934 54.3653 177.457 54.6 177.947 54.92C178.438 55.2187 178.683 55.6773 178.683 56.296C178.683 56.9573 178.417 57.48 177.883 57.864C177.35 58.248 176.657 58.44 175.803 58.44C174.801 58.44 173.883 58.152 173.051 57.576C172.241 57 171.601 56.2213 171.131 55.24L168.347 56.552C168.881 58.024 169.809 59.1973 171.131 60.072C172.475 60.9467 174.033 61.384 175.803 61.384ZM191.474 61.384C192.562 61.384 193.533 61.1707 194.386 60.744C195.24 60.296 195.912 59.6667 196.402 58.856V61L199.826 61L199.826 43.688H196.242L196.242 53.896C196.242 55.1547 195.88 56.1573 195.154 56.904C194.429 57.6507 193.501 58.024 192.37 58.024C191.261 58.024 190.344 57.6613 189.618 56.936C188.914 56.2107 188.562 55.2507 188.562 54.056L188.562 43.688L184.946 43.688L184.946 54.376C184.946 55.7627 185.213 56.9893 185.746 58.056C186.301 59.1013 187.069 59.9227 188.05 60.52C189.032 61.096 190.173 61.384 191.474 61.384ZM203.568 67.4L207.184 67.4L207.184 58.984C207.824 59.752 208.635 60.3493 209.616 60.776C210.598 61.1813 211.664 61.384 212.816 61.384C214.48 61.384 215.963 60.9893 217.264 60.2C218.566 59.3893 219.59 58.3013 220.336 56.936C221.104 55.5707 221.488 54.0347 221.488 52.328C221.488 50.6213 221.104 49.0853 220.336 47.72C219.59 46.3547 218.555 45.2773 217.232 44.488C215.931 43.6987 214.459 43.304 212.816 43.304C211.579 43.304 210.459 43.528 209.456 43.976C208.475 44.424 207.664 45.0533 207.024 45.864V43.688H203.568L203.568 67.4ZM212.464 58.024C211.462 58.024 210.555 57.7787 209.744 57.288C208.955 56.7973 208.326 56.1253 207.856 55.272C207.408 54.3973 207.184 53.416 207.184 52.328C207.184 51.24 207.408 50.2693 207.856 49.416C208.326 48.5627 208.955 47.8907 209.744 47.4C210.555 46.9093 211.462 46.664 212.464 46.664C213.488 46.664 214.395 46.9093 215.184 47.4C215.974 47.8907 216.592 48.5627 217.04 49.416C217.51 50.2693 217.744 51.24 217.744 52.328C217.744 53.416 217.51 54.3973 217.04 55.272C216.592 56.1253 215.974 56.7973 215.184 57.288C214.395 57.7787 213.488 58.024 212.464 58.024ZM224.526 67.4L228.142 67.4L228.142 58.984C228.782 59.752 229.592 60.3493 230.574 60.776C231.555 61.1813 232.622 61.384 233.774 61.384C235.438 61.384 236.92 60.9893 238.222 60.2C239.523 59.3893 240.547 58.3013 241.294 56.936C242.062 55.5707 242.446 54.0347 242.446 52.328C242.446 50.6213 242.062 49.0853 241.294 47.72C240.547 46.3547 239.512 45.2773 238.19 44.488C236.888 43.6987 235.416 43.304 233.774 43.304C232.536 43.304 231.416 43.528 230.414 43.976C229.432 44.424 228.622 45.0533 227.982 45.864V43.688L224.526 43.688L224.526 67.4ZM233.422 58.024C232.419 58.024 231.512 57.7787 230.702 57.288C229.912 56.7973 229.283 56.1253 228.814 55.272C228.366 54.3973 228.142 53.416 228.142 52.328C228.142 51.24 228.366 50.2693 228.814 49.416C229.283 48.5627 229.912 47.8907 230.702 47.4C231.512 46.9093 232.419 46.664 233.422 46.664C234.446 46.664 235.352 46.9093 236.142 47.4C236.931 47.8907 237.55 48.5627 237.998 49.416C238.467 50.2693 238.702 51.24 238.702 52.328C238.702 53.416 238.467 54.3973 237.998 55.272C237.55 56.1253 236.931 56.7973 236.142 57.288C235.352 57.7787 234.446 58.024 233.422 58.024ZM253.835 61.384C255.499 61.384 257.014 61 258.379 60.232C259.745 59.4427 260.833 58.3653 261.643 57C262.454 55.6347 262.859 54.0773 262.859 52.328C262.859 50.5787 262.454 49.032 261.643 47.688C260.854 46.3227 259.777 45.256 258.411 44.488C257.046 43.6987 255.521 43.304 253.835 43.304C252.15 43.304 250.614 43.6987 249.227 44.488C247.862 45.256 246.774 46.3227 245.963 47.688C245.174 49.032 244.779 50.5787 244.779 52.328C244.779 54.056 245.185 55.6027 245.995 56.968C246.806 58.3333 247.894 59.4107 249.259 60.2C250.646 60.9893 252.171 61.384 253.835 61.384ZM253.835 58.024C252.833 58.024 251.926 57.7787 251.115 57.288C250.326 56.7973 249.697 56.1253 249.227 55.272C248.779 54.3973 248.555 53.416 248.555 52.328C248.555 51.24 248.779 50.2693 249.227 49.416C249.697 48.5627 250.326 47.8907 251.115 47.4C251.926 46.9093 252.833 46.664 253.835 46.664C254.838 46.664 255.734 46.9093 256.523 47.4C257.334 47.8907 257.963 48.5627 258.411 49.416C258.881 50.2693 259.115 51.24 259.115 52.328C259.115 53.416 258.881 54.3973 258.411 55.272C257.963 56.1253 257.334 56.7973 256.523 57.288C255.734 57.7787 254.838 58.024 253.835 58.024ZM265.91 61L269.526 61V51.016C269.526 49.6507 269.888 48.6053 270.614 47.88C271.36 47.1333 272.331 46.76 273.526 46.76H275.03V43.464H273.974C272.928 43.464 272.011 43.656 271.222 44.04C270.432 44.424 269.814 45.0427 269.366 45.896V43.688L265.91 43.688L265.91 61ZM284.824 61.192C285.122 61.192 285.453 61.1707 285.816 61.128C286.178 61.0853 286.498 61.0427 286.776 61V57.896C286.37 57.96 285.976 57.992 285.592 57.992C284.546 57.992 283.8 57.7467 283.352 57.256C282.925 56.744 282.712 56.0507 282.712 55.176L282.712 46.952L286.648 46.952V43.688L282.712 43.688V39.72H279.096V41.064C279.096 41.8747 278.872 42.5147 278.424 42.984C277.976 43.4533 277.346 43.688 276.536 43.688H276.056V46.952L279.096 46.952L279.096 55.336C279.096 57.192 279.597 58.632 280.6 59.656C281.602 60.68 283.01 61.192 284.824 61.192ZM297.64 61.384C299.411 61.384 300.947 60.9787 302.248 60.168C303.571 59.3573 304.499 58.3333 305.032 57.096L302.088 55.656C301.661 56.3813 301.075 56.9893 300.328 57.48C299.603 57.9493 298.717 58.184 297.672 58.184C296.307 58.184 295.144 57.7573 294.184 56.904C293.224 56.0293 292.691 54.856 292.584 53.384L305.448 53.384C305.512 53.128 305.555 52.8507 305.576 52.552C305.597 52.2533 305.608 51.9653 305.608 51.688C305.608 50.1947 305.277 48.8187 304.616 47.56C303.976 46.28 303.037 45.256 301.8 44.488C300.584 43.6987 299.101 43.304 297.352 43.304C295.731 43.304 294.269 43.6987 292.968 44.488C291.688 45.256 290.675 46.3227 289.928 47.688C289.181 49.032 288.808 50.568 288.808 52.296C288.808 54.0027 289.181 55.5493 289.928 56.936C290.696 58.3013 291.741 59.3893 293.064 60.2C294.387 60.9893 295.912 61.384 297.64 61.384ZM297.352 46.344C298.568 46.344 299.592 46.728 300.424 47.496C301.256 48.264 301.704 49.2667 301.768 50.504L292.648 50.504C292.861 49.1813 293.405 48.1573 294.28 47.432C295.155 46.7067 296.179 46.344 297.352 46.344ZM316.657 61.384C317.852 61.384 318.95 61.16 319.953 60.712C320.977 60.264 321.809 59.6133 322.449 58.76V61L325.873 61L325.873 36.776L322.289 36.776L322.289 45.704C321.649 44.9573 320.838 44.3707 319.857 43.944C318.897 43.5173 317.82 43.304 316.625 43.304C314.982 43.304 313.5 43.6987 312.177 44.488C310.876 45.2773 309.841 46.3547 309.073 47.72C308.326 49.0853 307.953 50.6213 307.953 52.328C307.953 54.0347 308.326 55.5707 309.073 56.936C309.841 58.3013 310.876 59.3893 312.177 60.2C313.5 60.9893 314.993 61.384 316.657 61.384ZM317.009 58.024C315.985 58.024 315.068 57.7787 314.257 57.288C313.468 56.7973 312.849 56.1253 312.401 55.272C311.953 54.3973 311.729 53.416 311.729 52.328C311.729 51.24 311.953 50.2693 312.401 49.416C312.87 48.5627 313.5 47.8907 314.289 47.4C315.1 46.9093 316.006 46.664 317.009 46.664C318.012 46.664 318.908 46.9093 319.697 47.4C320.508 47.8907 321.137 48.5627 321.585 49.416C322.054 50.2693 322.289 51.24 322.289 52.328C322.289 53.416 322.054 54.3973 321.585 55.272C321.137 56.1253 320.508 56.7973 319.697 57.288C318.908 57.7787 318.012 58.024 317.009 58.024Z" fill="white"/>
<path d="M368 68C379 68 388 59 388 48C388 37 379 28 368 28C357 28 348 37 348 48C348 59 357 68 368 68Z" stroke="white" stroke-width="2" stroke-linecap="round" stroke-linejoin="round"/>
<path d="M362.34 53.6598L373.66 42.3398" stroke="white" stroke-width="2" stroke-linecap="round" stroke-linejoin="round"/>
<path d="M373.66 53.6598L362.34 42.3398" stroke="white" stroke-width="2" stroke-linecap="round" stroke-linejoin="round"/>
</svg>
