<svg width="590" height="96" viewBox="0 0 590 96" fill="none" xmlns="http://www.w3.org/2000/svg">
<rect width="590" height="96" rx="48" fill="#4DC85F"/>
<path d="M35.424 61L43.232 61C45.7067 61 47.8507 60.4987 49.664 59.496C51.4987 58.4933 52.9173 57.096 53.92 55.304C54.9227 53.4907 55.424 51.4107 55.424 49.064C55.424 46.696 54.9227 44.616 53.92 42.824C52.9173 41.032 51.4987 39.6453 49.664 38.664C47.8507 37.6613 45.7067 37.16 43.232 37.16L35.424 37.16L35.424 61ZM39.2 57.64L39.2 40.52H43.296C44.9813 40.52 46.4427 40.872 47.68 41.576C48.9387 42.2587 49.9093 43.24 50.592 44.52C51.2747 45.8 51.616 47.3147 51.616 49.064C51.616 50.8133 51.2747 52.328 50.592 53.608C49.9093 54.888 48.9387 55.88 47.68 56.584C46.4427 57.288 44.9813 57.64 43.296 57.64L39.2 57.64ZM63.3385 61.384C64.5332 61.384 65.6105 61.1813 66.5705 60.776C67.5305 60.3493 68.3305 59.752 68.9705 58.984V61L72.4265 61L72.4265 49.352C72.4265 48.1573 72.1278 47.112 71.5305 46.216C70.9332 45.2987 70.1118 44.584 69.0665 44.072C68.0212 43.56 66.8158 43.304 65.4505 43.304C64.3625 43.304 63.3278 43.496 62.3465 43.88C61.3865 44.2427 60.5438 44.744 59.8185 45.384C59.1145 46.024 58.5918 46.7707 58.2505 47.624L61.2585 49.128C61.5998 48.3173 62.1225 47.6667 62.8265 47.176C63.5518 46.6853 64.3945 46.44 65.3545 46.44C66.3998 46.44 67.2318 46.7173 67.8505 47.272C68.4905 47.8053 68.8105 48.4987 68.8105 49.352V50.024L63.3065 50.92C61.3012 51.2613 59.8185 51.9227 58.8585 52.904C57.9198 53.864 57.4505 55.0373 57.4505 56.424C57.4505 57.9173 57.9945 59.1227 59.0825 60.04C60.1705 60.936 61.5892 61.384 63.3385 61.384ZM61.2265 56.296C61.2265 55.6133 61.4505 55.048 61.8985 54.6C62.3465 54.152 63.0505 53.8533 64.0105 53.704L68.8105 52.872V53.8C68.8105 54.6747 68.5972 55.4747 68.1705 56.2C67.7652 56.9253 67.1998 57.5013 66.4745 57.928C65.7492 58.3333 64.8958 58.536 63.9145 58.536C63.1252 58.536 62.4745 58.3333 61.9625 57.928C61.4718 57.5013 61.2265 56.9573 61.2265 56.296ZM83.35 61.192C83.6487 61.192 83.9793 61.1707 84.342 61.128C84.7047 61.0853 85.0247 61.0427 85.302 61V57.896C84.8967 57.96 84.502 57.992 84.118 57.992C83.0727 57.992 82.326 57.7467 81.878 57.256C81.4513 56.744 81.238 56.0507 81.238 55.176L81.238 46.952L85.174 46.952L85.174 43.688L81.238 43.688V39.72L77.622 39.72V41.064C77.622 41.8747 77.398 42.5147 76.95 42.984C76.502 43.4533 75.8727 43.688 75.062 43.688H74.582L74.582 46.952L77.622 46.952L77.622 55.336C77.622 57.192 78.1233 58.632 79.126 59.656C80.1287 60.68 81.5367 61.192 83.35 61.192ZM93.3785 61.384C94.5732 61.384 95.6505 61.1813 96.6105 60.776C97.5705 60.3493 98.3705 59.752 99.0105 58.984V61L102.466 61L102.466 49.352C102.466 48.1573 102.168 47.112 101.57 46.216C100.973 45.2987 100.152 44.584 99.1065 44.072C98.0612 43.56 96.8558 43.304 95.4905 43.304C94.4025 43.304 93.3678 43.496 92.3865 43.88C91.4265 44.2427 90.5838 44.744 89.8585 45.384C89.1545 46.024 88.6318 46.7707 88.2905 47.624L91.2985 49.128C91.6398 48.3173 92.1625 47.6667 92.8665 47.176C93.5918 46.6853 94.4345 46.44 95.3945 46.44C96.4398 46.44 97.2718 46.7173 97.8905 47.272C98.5305 47.8053 98.8505 48.4987 98.8505 49.352V50.024L93.3465 50.92C91.3412 51.2613 89.8585 51.9227 88.8985 52.904C87.9598 53.864 87.4905 55.0373 87.4905 56.424C87.4905 57.9173 88.0345 59.1227 89.1225 60.04C90.2105 60.936 91.6292 61.384 93.3785 61.384ZM91.2665 56.296C91.2665 55.6133 91.4905 55.048 91.9385 54.6C92.3865 54.152 93.0905 53.8533 94.0505 53.704L98.8505 52.872L98.8505 53.8C98.8505 54.6747 98.6372 55.4747 98.2105 56.2C97.8052 56.9253 97.2398 57.5013 96.5145 57.928C95.7892 58.3333 94.9358 58.536 93.9545 58.536C93.1652 58.536 92.5145 58.3333 92.0025 57.928C91.5118 57.5013 91.2665 56.9573 91.2665 56.296ZM117.728 61.384C119.008 61.384 120.128 61.1707 121.088 60.744C122.07 60.296 122.827 59.688 123.36 58.92C123.894 58.1307 124.16 57.224 124.16 56.2C124.16 55.0053 123.776 53.9813 123.008 53.128C122.24 52.2533 121.142 51.6133 119.712 51.208L116.896 50.376C116.363 50.2053 115.862 49.9707 115.392 49.672C114.923 49.3733 114.688 48.9253 114.688 48.328C114.688 47.7093 114.923 47.2187 115.392 46.856C115.862 46.4933 116.491 46.312 117.28 46.312C118.198 46.312 119.019 46.5573 119.744 47.048C120.491 47.5387 121.035 48.2 121.376 49.032L124.16 47.72C123.648 46.3333 122.774 45.256 121.536 44.488C120.299 43.6987 118.891 43.304 117.312 43.304C116.139 43.304 115.083 43.528 114.144 43.976C113.206 44.4027 112.47 45 111.936 45.768C111.403 46.536 111.136 47.4427 111.136 48.488C111.136 49.6613 111.499 50.6747 112.224 51.528C112.971 52.3813 114.091 53.0213 115.584 53.448L118.304 54.216C118.859 54.3653 119.382 54.6 119.872 54.92C120.363 55.2187 120.608 55.6773 120.608 56.296C120.608 56.9573 120.342 57.48 119.808 57.864C119.275 58.248 118.582 58.44 117.728 58.44C116.726 58.44 115.808 58.152 114.976 57.576C114.166 57 113.526 56.2213 113.056 55.24L110.272 56.552C110.806 58.024 111.734 59.1973 113.056 60.072C114.4 60.9467 115.958 61.384 117.728 61.384ZM133.399 61.384C134.487 61.384 135.458 61.1707 136.311 60.744C137.165 60.296 137.837 59.6667 138.327 58.856V61H141.751L141.751 43.688H138.167L138.167 53.896C138.167 55.1547 137.805 56.1573 137.079 56.904C136.354 57.6507 135.426 58.024 134.295 58.024C133.186 58.024 132.269 57.6613 131.543 56.936C130.839 56.2107 130.487 55.2507 130.487 54.056L130.487 43.688L126.871 43.688L126.871 54.376C126.871 55.7627 127.138 56.9893 127.671 58.056C128.226 59.1013 128.994 59.9227 129.975 60.52C130.957 61.096 132.098 61.384 133.399 61.384ZM153.717 61.384C154.912 61.384 156.021 61.1707 157.045 60.744C158.069 60.3173 158.955 59.7413 159.701 59.016C160.469 58.2693 161.024 57.4373 161.365 56.52L158.197 55.016C157.813 55.9333 157.227 56.6693 156.437 57.224C155.669 57.7573 154.763 58.024 153.717 58.024C152.736 58.024 151.851 57.7787 151.061 57.288C150.293 56.7973 149.685 56.1253 149.237 55.272C148.789 54.3973 148.565 53.416 148.565 52.328C148.565 51.2187 148.789 50.248 149.237 49.416C149.685 48.5627 150.293 47.8907 151.061 47.4C151.851 46.9093 152.736 46.664 153.717 46.664C154.763 46.664 155.68 46.9413 156.469 47.496C157.259 48.0293 157.835 48.744 158.197 49.64L161.365 48.168C161.003 47.208 160.437 46.3653 159.669 45.64C158.923 44.8933 158.037 44.3173 157.013 43.912C155.989 43.5067 154.891 43.304 153.717 43.304C151.989 43.304 150.453 43.6987 149.109 44.488C147.765 45.256 146.709 46.3227 145.941 47.688C145.173 49.032 144.789 50.568 144.789 52.296C144.789 54.024 145.173 55.5707 145.941 56.936C146.709 58.3013 147.765 59.3893 149.109 60.2C150.453 60.9893 151.989 61.384 153.717 61.384ZM172.643 61.384C173.838 61.384 174.947 61.1707 175.971 60.744C176.995 60.3173 177.881 59.7413 178.627 59.016C179.395 58.2693 179.95 57.4373 180.291 56.52L177.123 55.016C176.739 55.9333 176.153 56.6693 175.363 57.224C174.595 57.7573 173.689 58.024 172.643 58.024C171.662 58.024 170.777 57.7787 169.987 57.288C169.219 56.7973 168.611 56.1253 168.163 55.272C167.715 54.3973 167.491 53.416 167.491 52.328C167.491 51.2187 167.715 50.248 168.163 49.416C168.611 48.5627 169.219 47.8907 169.987 47.4C170.777 46.9093 171.662 46.664 172.643 46.664C173.689 46.664 174.606 46.9413 175.395 47.496C176.185 48.0293 176.761 48.744 177.123 49.64L180.291 48.168C179.929 47.208 179.363 46.3653 178.595 45.64C177.849 44.8933 176.963 44.3173 175.939 43.912C174.915 43.5067 173.817 43.304 172.643 43.304C170.915 43.304 169.379 43.6987 168.035 44.488C166.691 45.256 165.635 46.3227 164.867 47.688C164.099 49.032 163.715 50.568 163.715 52.296C163.715 54.024 164.099 55.5707 164.867 56.936C165.635 58.3013 166.691 59.3893 168.035 60.2C169.379 60.9893 170.915 61.384 172.643 61.384ZM191.474 61.384C193.244 61.384 194.78 60.9787 196.082 60.168C197.404 59.3573 198.332 58.3333 198.866 57.096L195.922 55.656C195.495 56.3813 194.908 56.9893 194.162 57.48C193.436 57.9493 192.551 58.184 191.506 58.184C190.14 58.184 188.978 57.7573 188.018 56.904C187.058 56.0293 186.524 54.856 186.418 53.384L199.282 53.384C199.346 53.128 199.388 52.8507 199.41 52.552C199.431 52.2533 199.442 51.9653 199.442 51.688C199.442 50.1947 199.111 48.8187 198.45 47.56C197.81 46.28 196.871 45.256 195.634 44.488C194.418 43.6987 192.935 43.304 191.186 43.304C189.564 43.304 188.103 43.6987 186.802 44.488C185.522 45.256 184.508 46.3227 183.762 47.688C183.015 49.032 182.642 50.568 182.642 52.296C182.642 54.0027 183.015 55.5493 183.762 56.936C184.53 58.3013 185.575 59.3893 186.898 60.2C188.22 60.9893 189.746 61.384 191.474 61.384ZM191.186 46.344C192.402 46.344 193.426 46.728 194.258 47.496C195.09 48.264 195.538 49.2667 195.602 50.504L186.482 50.504C186.695 49.1813 187.239 48.1573 188.114 47.432C188.988 46.7067 190.012 46.344 191.186 46.344ZM208.891 61.384C210.171 61.384 211.291 61.1707 212.251 60.744C213.232 60.296 213.989 59.688 214.523 58.92C215.056 58.1307 215.323 57.224 215.323 56.2C215.323 55.0053 214.939 53.9813 214.171 53.128C213.403 52.2533 212.304 51.6133 210.875 51.208L208.059 50.376C207.525 50.2053 207.024 49.9707 206.555 49.672C206.085 49.3733 205.851 48.9253 205.851 48.328C205.851 47.7093 206.085 47.2187 206.555 46.856C207.024 46.4933 207.653 46.312 208.443 46.312C209.36 46.312 210.181 46.5573 210.907 47.048C211.653 47.5387 212.197 48.2 212.539 49.032L215.323 47.72C214.811 46.3333 213.936 45.256 212.699 44.488C211.461 43.6987 210.053 43.304 208.475 43.304C207.301 43.304 206.245 43.528 205.307 43.976C204.368 44.4027 203.632 45 203.099 45.768C202.565 46.536 202.299 47.4427 202.299 48.488C202.299 49.6613 202.661 50.6747 203.387 51.528C204.133 52.3813 205.253 53.0213 206.747 53.448L209.467 54.216C210.021 54.3653 210.544 54.6 211.035 54.92C211.525 55.2187 211.771 55.6773 211.771 56.296C211.771 56.9573 211.504 57.48 210.971 57.864C210.437 58.248 209.744 58.44 208.891 58.44C207.888 58.44 206.971 58.152 206.139 57.576C205.328 57 204.688 56.2213 204.219 55.24L201.435 56.552C201.968 58.024 202.896 59.1973 204.219 60.072C205.563 60.9467 207.12 61.384 208.891 61.384ZM224.786 61.384C226.066 61.384 227.186 61.1707 228.146 60.744C229.127 60.296 229.884 59.688 230.418 58.92C230.951 58.1307 231.218 57.224 231.218 56.2C231.218 55.0053 230.834 53.9813 230.066 53.128C229.298 52.2533 228.199 51.6133 226.77 51.208L223.954 50.376C223.42 50.2053 222.919 49.9707 222.45 49.672C221.98 49.3733 221.746 48.9253 221.746 48.328C221.746 47.7093 221.98 47.2187 222.45 46.856C222.919 46.4933 223.548 46.312 224.338 46.312C225.255 46.312 226.076 46.5573 226.802 47.048C227.548 47.5387 228.092 48.2 228.434 49.032L231.218 47.72C230.706 46.3333 229.831 45.256 228.594 44.488C227.356 43.6987 225.948 43.304 224.37 43.304C223.196 43.304 222.14 43.528 221.202 43.976C220.263 44.4027 219.527 45 218.994 45.768C218.46 46.536 218.194 47.4427 218.194 48.488C218.194 49.6613 218.556 50.6747 219.282 51.528C220.028 52.3813 221.148 53.0213 222.642 53.448L225.362 54.216C225.916 54.3653 226.439 54.6 226.93 54.92C227.42 55.2187 227.666 55.6773 227.666 56.296C227.666 56.9573 227.399 57.48 226.866 57.864C226.332 58.248 225.639 58.44 224.786 58.44C223.783 58.44 222.866 58.152 222.034 57.576C221.223 57 220.583 56.2213 220.114 55.24L217.33 56.552C217.863 58.024 218.791 59.1973 220.114 60.072C221.458 60.9467 223.015 61.384 224.786 61.384ZM236.233 61L239.817 61L239.817 46.952L243.785 46.952V43.688L239.817 43.688V42.792C239.817 41.7893 240.105 41.0747 240.681 40.648C241.257 40.2 242.025 39.976 242.985 39.976C243.113 39.976 243.283 39.9867 243.497 40.008C243.71 40.008 243.902 40.0293 244.073 40.072V36.936C243.881 36.8933 243.635 36.8613 243.337 36.84C243.038 36.7973 242.771 36.776 242.537 36.776C240.702 36.776 239.187 37.2987 237.993 38.344C236.819 39.368 236.233 40.8507 236.233 42.792V43.688L233.033 43.688V46.952L236.233 46.952L236.233 61ZM252.852 61.384C253.94 61.384 254.91 61.1707 255.764 60.744C256.617 60.296 257.289 59.6667 257.78 58.856V61L261.204 61L261.204 43.688L257.62 43.688L257.62 53.896C257.62 55.1547 257.257 56.1573 256.532 56.904C255.806 57.6507 254.878 58.024 253.748 58.024C252.638 58.024 251.721 57.6613 250.996 56.936C250.292 56.2107 249.94 55.2507 249.94 54.056L249.94 43.688H246.324L246.324 54.376C246.324 55.7627 246.59 56.9893 247.124 58.056C247.678 59.1013 248.446 59.9227 249.428 60.52C250.409 61.096 251.55 61.384 252.852 61.384ZM264.946 61L268.562 61L268.562 36.776L264.946 36.776L264.946 61ZM272.309 61L275.925 61L275.925 36.776L272.309 36.776L272.309 61ZM281.209 68.072C282.852 68.072 284.196 67.592 285.241 66.632C286.308 65.6933 287.151 64.4453 287.769 62.888L295.417 43.688L291.513 43.688L286.649 56.392L281.785 43.688H277.913L284.793 61L284.313 62.088C283.929 63.0053 283.492 63.6773 283.001 64.104C282.532 64.552 281.796 64.776 280.793 64.776C280.452 64.776 280.1 64.744 279.737 64.68C279.375 64.6373 279.065 64.584 278.809 64.52L278.809 67.624C279.172 67.7733 279.556 67.88 279.961 67.944C280.388 68.0293 280.804 68.072 281.209 68.072ZM310.526 61.384C311.72 61.384 312.819 61.16 313.822 60.712C314.846 60.264 315.678 59.6133 316.318 58.76V61H319.742L319.742 36.776L316.158 36.776L316.158 45.704C315.518 44.9573 314.707 44.3707 313.726 43.944C312.766 43.5173 311.688 43.304 310.494 43.304C308.851 43.304 307.368 43.6987 306.046 44.488C304.744 45.2773 303.71 46.3547 302.942 47.72C302.195 49.0853 301.822 50.6213 301.822 52.328C301.822 54.0347 302.195 55.5707 302.942 56.936C303.71 58.3013 304.744 59.3893 306.046 60.2C307.368 60.9893 308.862 61.384 310.526 61.384ZM310.878 58.024C309.854 58.024 308.936 57.7787 308.126 57.288C307.336 56.7973 306.718 56.1253 306.27 55.272C305.822 54.3973 305.598 53.416 305.598 52.328C305.598 51.24 305.822 50.2693 306.27 49.416C306.739 48.5627 307.368 47.8907 308.158 47.4C308.968 46.9093 309.875 46.664 310.878 46.664C311.88 46.664 312.776 46.9093 313.566 47.4C314.376 47.8907 315.006 48.5627 315.454 49.416C315.923 50.2693 316.158 51.24 316.158 52.328C316.158 53.416 315.923 54.3973 315.454 55.272C315.006 56.1253 314.376 56.7973 313.566 57.288C312.776 57.7787 311.88 58.024 310.878 58.024ZM331.835 61.384C333.499 61.384 335.014 61 336.379 60.232C337.745 59.4427 338.833 58.3653 339.643 57C340.454 55.6347 340.859 54.0773 340.859 52.328C340.859 50.5787 340.454 49.032 339.643 47.688C338.854 46.3227 337.777 45.256 336.411 44.488C335.046 43.6987 333.521 43.304 331.835 43.304C330.15 43.304 328.614 43.6987 327.227 44.488C325.862 45.256 324.774 46.3227 323.963 47.688C323.174 49.032 322.779 50.5787 322.779 52.328C322.779 54.056 323.185 55.6027 323.995 56.968C324.806 58.3333 325.894 59.4107 327.259 60.2C328.646 60.9893 330.171 61.384 331.835 61.384ZM331.835 58.024C330.833 58.024 329.926 57.7787 329.115 57.288C328.326 56.7973 327.697 56.1253 327.227 55.272C326.779 54.3973 326.555 53.416 326.555 52.328C326.555 51.24 326.779 50.2693 327.227 49.416C327.697 48.5627 328.326 47.8907 329.115 47.4C329.926 46.9093 330.833 46.664 331.835 46.664C332.838 46.664 333.734 46.9093 334.523 47.4C335.334 47.8907 335.963 48.5627 336.411 49.416C336.881 50.2693 337.115 51.24 337.115 52.328C337.115 53.416 336.881 54.3973 336.411 55.272C335.963 56.1253 335.334 56.7973 334.523 57.288C333.734 57.7787 332.838 58.024 331.835 58.024ZM347.789 61L351.085 61L355.181 48.68L359.245 61L362.509 61L368.493 43.688L364.653 43.688L360.749 55.464L356.813 43.688H353.517L349.549 55.464L345.677 43.688L341.837 43.688L347.789 61ZM370.492 61L374.108 61V50.792C374.108 49.512 374.471 48.5093 375.196 47.784C375.921 47.0373 376.839 46.664 377.948 46.664C379.079 46.664 379.996 47.0373 380.7 47.784C381.425 48.5093 381.788 49.512 381.788 50.792V61L385.372 61V49.8C385.372 48.52 385.084 47.4 384.508 46.44C383.953 45.4587 383.185 44.6907 382.204 44.136C381.223 43.5813 380.103 43.304 378.844 43.304C377.777 43.304 376.817 43.5173 375.964 43.944C375.111 44.3707 374.439 44.9893 373.948 45.8V43.688H370.492V61ZM388.762 61L392.378 61L392.378 36.776L388.762 36.776L388.762 61ZM404.478 61.384C406.142 61.384 407.656 61 409.022 60.232C410.387 59.4427 411.475 58.3653 412.286 57C413.096 55.6347 413.502 54.0773 413.502 52.328C413.502 50.5787 413.096 49.032 412.286 47.688C411.496 46.3227 410.419 45.256 409.054 44.488C407.688 43.6987 406.163 43.304 404.478 43.304C402.792 43.304 401.256 43.6987 399.87 44.488C398.504 45.256 397.416 46.3227 396.606 47.688C395.816 49.032 395.422 50.5787 395.422 52.328C395.422 54.056 395.827 55.6027 396.638 56.968C397.448 58.3333 398.536 59.4107 399.902 60.2C401.288 60.9893 402.814 61.384 404.478 61.384ZM404.478 58.024C403.475 58.024 402.568 57.7787 401.758 57.288C400.968 56.7973 400.339 56.1253 399.87 55.272C399.422 54.3973 399.198 53.416 399.198 52.328C399.198 51.24 399.422 50.2693 399.87 49.416C400.339 48.5627 400.968 47.8907 401.758 47.4C402.568 46.9093 403.475 46.664 404.478 46.664C405.48 46.664 406.376 46.9093 407.166 47.4C407.976 47.8907 408.606 48.5627 409.054 49.416C409.523 50.2693 409.758 51.24 409.758 52.328C409.758 53.416 409.523 54.3973 409.054 55.272C408.606 56.1253 407.976 56.7973 407.166 57.288C406.376 57.7787 405.48 58.024 404.478 58.024ZM421.736 61.384C422.931 61.384 424.008 61.1813 424.968 60.776C425.928 60.3493 426.728 59.752 427.368 58.984V61L430.824 61V49.352C430.824 48.1573 430.525 47.112 429.928 46.216C429.331 45.2987 428.509 44.584 427.464 44.072C426.419 43.56 425.213 43.304 423.848 43.304C422.76 43.304 421.725 43.496 420.744 43.88C419.784 44.2427 418.941 44.744 418.216 45.384C417.512 46.024 416.989 46.7707 416.648 47.624L419.656 49.128C419.997 48.3173 420.52 47.6667 421.224 47.176C421.949 46.6853 422.792 46.44 423.752 46.44C424.797 46.44 425.629 46.7173 426.248 47.272C426.888 47.8053 427.208 48.4987 427.208 49.352V50.024L421.704 50.92C419.699 51.2613 418.216 51.9227 417.256 52.904C416.317 53.864 415.848 55.0373 415.848 56.424C415.848 57.9173 416.392 59.1227 417.48 60.04C418.568 60.936 419.987 61.384 421.736 61.384ZM419.624 56.296C419.624 55.6133 419.848 55.048 420.296 54.6C420.744 54.152 421.448 53.8533 422.408 53.704L427.208 52.872V53.8C427.208 54.6747 426.995 55.4747 426.568 56.2C426.163 56.9253 425.597 57.5013 424.872 57.928C424.147 58.3333 423.293 58.536 422.312 58.536C421.523 58.536 420.872 58.3333 420.36 57.928C419.869 57.5013 419.624 56.9573 419.624 56.296ZM442.572 61.384C443.767 61.384 444.865 61.16 445.868 60.712C446.892 60.264 447.724 59.6133 448.364 58.76V61H451.788L451.788 36.776L448.204 36.776L448.204 45.704C447.564 44.9573 446.753 44.3707 445.772 43.944C444.812 43.5173 443.735 43.304 442.54 43.304C440.897 43.304 439.415 43.6987 438.092 44.488C436.791 45.2773 435.756 46.3547 434.988 47.72C434.241 49.0853 433.868 50.6213 433.868 52.328C433.868 54.0347 434.241 55.5707 434.988 56.936C435.756 58.3013 436.791 59.3893 438.092 60.2C439.415 60.9893 440.908 61.384 442.572 61.384ZM442.924 58.024C441.9 58.024 440.983 57.7787 440.172 57.288C439.383 56.7973 438.764 56.1253 438.316 55.272C437.868 54.3973 437.644 53.416 437.644 52.328C437.644 51.24 437.868 50.2693 438.316 49.416C438.785 48.5627 439.415 47.8907 440.204 47.4C441.015 46.9093 441.921 46.664 442.924 46.664C443.927 46.664 444.823 46.9093 445.612 47.4C446.423 47.8907 447.052 48.5627 447.5 49.416C447.969 50.2693 448.204 51.24 448.204 52.328C448.204 53.416 447.969 54.3973 447.5 55.272C447.052 56.1253 446.423 56.7973 445.612 57.288C444.823 57.7787 443.927 58.024 442.924 58.024ZM463.657 61.384C465.428 61.384 466.964 60.9787 468.265 60.168C469.588 59.3573 470.516 58.3333 471.049 57.096L468.105 55.656C467.679 56.3813 467.092 56.9893 466.345 57.48C465.62 57.9493 464.735 58.184 463.689 58.184C462.324 58.184 461.161 57.7573 460.201 56.904C459.241 56.0293 458.708 54.856 458.601 53.384L471.465 53.384C471.529 53.128 471.572 52.8507 471.593 52.552C471.615 52.2533 471.625 51.9653 471.625 51.688C471.625 50.1947 471.295 48.8187 470.633 47.56C469.993 46.28 469.055 45.256 467.817 44.488C466.601 43.6987 465.119 43.304 463.369 43.304C461.748 43.304 460.287 43.6987 458.985 44.488C457.705 45.256 456.692 46.3227 455.945 47.688C455.199 49.032 454.825 50.568 454.825 52.296C454.825 54.0027 455.199 55.5493 455.945 56.936C456.713 58.3013 457.759 59.3893 459.081 60.2C460.404 60.9893 461.929 61.384 463.657 61.384ZM463.369 46.344C464.585 46.344 465.609 46.728 466.441 47.496C467.273 48.264 467.721 49.2667 467.785 50.504L458.665 50.504C458.879 49.1813 459.423 48.1573 460.297 47.432C461.172 46.7067 462.196 46.344 463.369 46.344ZM482.675 61.384C483.869 61.384 484.968 61.16 485.971 60.712C486.995 60.264 487.827 59.6133 488.467 58.76V61L491.891 61L491.891 36.776L488.307 36.776L488.307 45.704C487.667 44.9573 486.856 44.3707 485.875 43.944C484.915 43.5173 483.837 43.304 482.643 43.304C481 43.304 479.517 43.6987 478.195 44.488C476.893 45.2773 475.859 46.3547 475.091 47.72C474.344 49.0853 473.971 50.6213 473.971 52.328C473.971 54.0347 474.344 55.5707 475.091 56.936C475.859 58.3013 476.893 59.3893 478.195 60.2C479.517 60.9893 481.011 61.384 482.675 61.384ZM483.027 58.024C482.003 58.024 481.085 57.7787 480.275 57.288C479.485 56.7973 478.867 56.1253 478.419 55.272C477.971 54.3973 477.747 53.416 477.747 52.328C477.747 51.24 477.971 50.2693 478.419 49.416C478.888 48.5627 479.517 47.8907 480.307 47.4C481.117 46.9093 482.024 46.664 483.027 46.664C484.029 46.664 484.925 46.9093 485.715 47.4C486.525 47.8907 487.155 48.5627 487.603 49.416C488.072 50.2693 488.307 51.24 488.307 52.328C488.307 53.416 488.072 54.3973 487.603 55.272C487.155 56.1253 486.525 56.7973 485.715 57.288C484.925 57.7787 484.029 58.024 483.027 58.024Z" fill="white"/>
<path d="M534 68C545 68 554 59 554 48C554 37 545 28 534 28C523 28 514 37 514 48C514 59 523 68 534 68Z" stroke="white" stroke-width="2" stroke-linecap="round" stroke-linejoin="round"/>
<path d="M525.5 47.9998L531.16 53.6598L542.5 42.3398" stroke="white" stroke-width="2" stroke-linecap="round" stroke-linejoin="round"/>
</svg>
