<svg width="196" height="196" viewBox="0 0 196 196" fill="none" xmlns="http://www.w3.org/2000/svg">
<rect x="6" y="6" width="184" height="184" rx="92" fill="#DBF6D8"/>
<path d="M98.0001 3C85.5245 2.99999 73.1711 5.45723 61.6451 10.2314C50.1192 15.0056 39.6465 22.0033 30.8249 30.8248C22.0033 39.6464 15.0057 50.1191 10.2315 61.645C5.45726 73.171 3.00001 85.5244 3 98C2.99999 110.476 5.45724 122.829 10.2314 134.355C15.0056 145.881 22.0033 156.354 30.8248 165.175C39.6464 173.997 50.1191 180.994 61.645 185.769C73.171 190.543 85.5244 193 98 193C110.476 193 122.829 190.543 134.355 185.769C145.881 180.994 156.354 173.997 165.175 165.175C173.997 156.354 180.994 145.881 185.769 134.355C190.543 122.829 193 110.476 193 98C193 85.5244 190.543 73.171 185.769 61.6451C180.994 50.1192 173.997 39.6464 165.175 30.8249C156.354 22.0033 145.881 15.0056 134.355 10.2314C122.829 5.45725 110.476 3 98 3L98.0001 3Z" stroke="#4DC85F" stroke-width="6"/>
<path d="M97.9998 136.333C119.083 136.333 136.333 119.083 136.333 97.9998C136.333 76.9165 119.083 59.6665 97.9998 59.6665C76.9165 59.6665 59.6665 76.9165 59.6665 97.9998C59.6665 119.083 76.9165 136.333 97.9998 136.333Z" stroke="#4DC85F" stroke-width="6" stroke-linecap="round" stroke-linejoin="round"/>
<path d="M81.7085 98.0002L92.5568 108.849L114.292 87.1519" stroke="#4DC85F" stroke-width="6" stroke-linecap="round" stroke-linejoin="round"/>
</svg>
