<svg width="133" height="52" viewBox="0 0 133 52" fill="none" xmlns="http://www.w3.org/2000/svg">
<path d="M0 26C0 11.6406 11.6406 0 26 0L107 0C121.359 0 133 11.6406 133 26C133 40.3594 121.359 52 107 52L26 52C11.6406 52 0 40.3594 0 26Z" fill="#4DC85F"/>
<path d="M25.848 36L28.68 36L28.68 23.04L34.344 30.96H34.632L40.32 23.184L40.32 36H43.128L43.128 18.12L40.488 18.12L34.536 26.52L28.488 18.12L25.848 18.12L25.848 36ZM45.2406 36L48.2646 36L49.6566 31.992L56.9286 31.992L58.2966 36L61.3206 36L55.0326 18.12L51.5286 18.12L45.2406 36ZM50.4726 29.472L53.2806 21.264L56.0646 29.472L50.4726 29.472ZM65.4144 36H68.2224L68.2224 20.64L72.9024 20.64V18.12L60.6624 18.12V20.64L65.4144 20.64L65.4144 36ZM82.6213 36.288C83.8693 36.288 84.9973 36.072 86.0053 35.64C87.0133 35.208 87.8613 34.64 88.5493 33.936C89.2373 33.232 89.7333 32.48 90.0373 31.68L87.4933 30.48C87.1093 31.44 86.4933 32.216 85.6453 32.808C84.8133 33.4 83.8053 33.696 82.6213 33.696C81.4373 33.696 80.3893 33.424 79.4773 32.88C78.5813 32.32 77.8773 31.544 77.3653 30.552C76.8533 29.544 76.5973 28.376 76.5973 27.048C76.5973 25.72 76.8533 24.56 77.3653 23.568C77.8773 22.576 78.5813 21.8 79.4773 21.24C80.3893 20.68 81.4373 20.4 82.6213 20.4C83.8053 20.4 84.8133 20.704 85.6453 21.312C86.4933 21.904 87.1093 22.68 87.4933 23.64L90.0373 22.44C89.7333 21.624 89.2373 20.872 88.5493 20.184C87.8613 19.48 87.0133 18.912 86.0053 18.48C84.9973 18.048 83.8693 17.832 82.6213 17.832C81.3413 17.832 80.1573 18.064 79.0693 18.528C77.9973 18.976 77.0613 19.616 76.2613 20.448C75.4773 21.264 74.8613 22.24 74.4133 23.376C73.9813 24.496 73.7653 25.72 73.7653 27.048C73.7653 28.376 73.9813 29.608 74.4133 30.744C74.8613 31.864 75.4853 32.84 76.2853 33.672C77.0853 34.504 78.0213 35.152 79.0933 35.616C80.1813 36.064 81.3573 36.288 82.6213 36.288ZM92.9496 36L95.7816 36V28.512L104.062 28.512V36H106.87L106.87 18.12L104.062 18.12L104.062 25.992L95.7816 25.992L95.7816 18.12L92.9496 18.12L92.9496 36Z" fill="#FEFEFE"/>
</svg>
