<svg width="176" height="52" viewBox="0 0 176 52" fill="none" xmlns="http://www.w3.org/2000/svg">
<path d="M0 26C0 11.6406 11.6406 0 26 0L150 0C164.359 0 176 11.6406 176 26C176 40.3594 164.359 52 150 52L26 52C11.6406 52 0 40.3594 0 26Z" fill="#FDE8E7"/>
<path d="M25.848 36L28.68 36L28.68 23.496L37.608 36H39.888L39.888 18.12L37.08 18.12L37.08 30.48L28.128 18.12L25.848 18.12L25.848 36ZM52.2782 36.288C53.5742 36.288 54.7822 36.056 55.9022 35.592C57.0222 35.128 57.9982 34.48 58.8302 33.648C59.6622 32.816 60.3102 31.84 60.7742 30.72C61.2542 29.6 61.4942 28.376 61.4942 27.048C61.4942 25.72 61.2622 24.496 60.7982 23.376C60.3342 22.256 59.6782 21.28 58.8302 20.448C57.9982 19.616 57.0222 18.976 55.9022 18.528C54.7822 18.064 53.5742 17.832 52.2782 17.832C50.9822 17.832 49.7742 18.064 48.6542 18.528C47.5342 18.976 46.5582 19.616 45.7262 20.448C44.8942 21.264 44.2382 22.24 43.7582 23.376C43.2942 24.496 43.0622 25.72 43.0622 27.048C43.0622 28.376 43.2942 29.608 43.7582 30.744C44.2382 31.864 44.8942 32.84 45.7262 33.672C46.5582 34.504 47.5342 35.152 48.6542 35.616C49.7742 36.064 50.9822 36.288 52.2782 36.288ZM52.2782 33.696C51.0462 33.696 49.9502 33.408 48.9902 32.832C48.0302 32.24 47.2702 31.44 46.7102 30.432C46.1662 29.424 45.8942 28.296 45.8942 27.048C45.8942 25.784 46.1662 24.656 46.7102 23.664C47.2702 22.656 48.0302 21.864 48.9902 21.288C49.9502 20.696 51.0462 20.4 52.2782 20.4C53.5262 20.4 54.6302 20.696 55.5902 21.288C56.5502 21.864 57.3022 22.656 57.8462 23.664C58.4062 24.656 58.6862 25.784 58.6862 27.048C58.6862 28.296 58.4062 29.424 57.8462 30.432C57.3022 31.44 56.5422 32.24 55.5662 32.832C54.6062 33.408 53.5102 33.696 52.2782 33.696ZM68.8558 36L71.6878 36L71.6878 23.04L77.3518 30.96H77.6398L83.3278 23.184L83.3278 36L86.1358 36L86.1358 18.12L83.4958 18.12L77.5438 26.52L71.4958 18.12L68.8558 18.12L68.8558 36ZM88.2484 36H91.2724L92.6644 31.992L99.9364 31.992L101.304 36L104.328 36L98.0404 18.12L94.5364 18.12L88.2484 36ZM93.4804 29.472L96.2884 21.264L99.0724 29.472L93.4804 29.472ZM108.422 36L111.23 36L111.23 20.64L115.91 20.64L115.91 18.12L103.67 18.12L103.67 20.64L108.422 20.64L108.422 36ZM125.629 36.288C126.877 36.288 128.005 36.072 129.013 35.64C130.021 35.208 130.869 34.64 131.557 33.936C132.245 33.232 132.741 32.48 133.045 31.68L130.501 30.48C130.117 31.44 129.501 32.216 128.653 32.808C127.821 33.4 126.813 33.696 125.629 33.696C124.445 33.696 123.397 33.424 122.485 32.88C121.589 32.32 120.885 31.544 120.373 30.552C119.861 29.544 119.605 28.376 119.605 27.048C119.605 25.72 119.861 24.56 120.373 23.568C120.885 22.576 121.589 21.8 122.485 21.24C123.397 20.68 124.445 20.4 125.629 20.4C126.813 20.4 127.821 20.704 128.653 21.312C129.501 21.904 130.117 22.68 130.501 23.64L133.045 22.44C132.741 21.624 132.245 20.872 131.557 20.184C130.869 19.48 130.021 18.912 129.013 18.48C128.005 18.048 126.877 17.832 125.629 17.832C124.349 17.832 123.165 18.064 122.077 18.528C121.005 18.976 120.069 19.616 119.269 20.448C118.485 21.264 117.869 22.24 117.421 23.376C116.989 24.496 116.773 25.72 116.773 27.048C116.773 28.376 116.989 29.608 117.421 30.744C117.869 31.864 118.493 32.84 119.293 33.672C120.093 34.504 121.029 35.152 122.101 35.616C123.189 36.064 124.365 36.288 125.629 36.288ZM135.957 36L138.789 36V28.512L147.069 28.512V36H149.877L149.877 18.12L147.069 18.12V25.992L138.789 25.992V18.12L135.957 18.12L135.957 36Z" fill="#F66D5F"/>
</svg>
